HIERARCHY
ROOT Hips
{
	OFFSET 0.058547 100.481255 -0.522458
	CHANNELS 6 Xposition Yposition Zposition Xrotation Yrotation Zrotation 
	JOINT Spine
	{
		OFFSET -0.279214 12.230705 -2.892139
		CHANNELS 3 Xrotation Yrotation Zrotation
		JOINT Spine1
		{
			OFFSET -0.232678 10.192256 -1.242257
			CHANNELS 3 Xrotation Yrotation Zrotation
			JOINT Spine1_split
			{
				OFFSET -0.232678 10.192256 -1.242257
				CHANNELS 3 Xrotation Yrotation Zrotation
				JOINT Spine2
				{
					OFFSET -0.232678 10.192256 -1.242257
					CHANNELS 3 Xrotation Yrotation Zrotation
					JOINT Neck
					{
						OFFSET -0.418821 17.814224 8.416937
						CHANNELS 3 Xrotation Yrotation Zrotation
						JOINT Head
						{
							OFFSET 0.000000 7.031097 3.806764
							CHANNELS 3 Xrotation Yrotation Zrotation
							JOINT HeadTop_End
							{
								OFFSET 0.000000 24.646591 12.978601
								CHANNELS 3 Xrotation Yrotation Zrotation
								End Site
								{
									OFFSET 0.000000 0.000000 0.000000
								}
							}
						}
					}
					JOINT LeftShoulder
					{
						OFFSET 8.476512 7.247673 -3.868757
						CHANNELS 3 Xrotation Yrotation Zrotation
						JOINT LeftShoulder_split
						{
							OFFSET 8.476512 7.247673 -3.868757
							CHANNELS 3 Xrotation Yrotation Zrotation
							JOINT LeftArm
							{
								OFFSET 9.308996 -2.777740 0.208551
								CHANNELS 3 Xrotation Yrotation Zrotation
								JOINT LeftForeArm
								{
									OFFSET 29.972336 0.000015 0.000022
									CHANNELS 3 Xrotation Yrotation Zrotation
									JOINT LeftHand
									{
										OFFSET 26.026470 0.000015 0.000033
										CHANNELS 3 Xrotation Yrotation Zrotation
										JOINT LeftHandThumb1
										{
											OFFSET 12.240555 -7.117950 9.230400
											CHANNELS 3 Xrotation Yrotation Zrotation
											JOINT LeftHandThumb2
											{
												OFFSET 4.138626 -2.389450 2.389374
												CHANNELS 3 Xrotation Yrotation Zrotation
												JOINT LeftHandThumb3
												{
													OFFSET 2.726952 -1.574417 1.574393
													CHANNELS 3 Xrotation Yrotation Zrotation
													JOINT LeftHandThumb4
													{
														OFFSET 3.940979 -2.275375 2.275301
														CHANNELS 3 Xrotation Yrotation Zrotation
														End Site
														{
															OFFSET 0.000000 0.000000 0.000000
														}
													}
												}
											}
										}
										JOINT LeftHandIndex1
										{
											OFFSET 24.424660 -1.966187 5.959913
											CHANNELS 3 Xrotation Yrotation Zrotation
											JOINT LeftHandIndex2
											{
												OFFSET 6.426682 0.000015 0.000035
												CHANNELS 3 Xrotation Yrotation Zrotation
												JOINT LeftHandIndex3
												{
													OFFSET 5.337883 -0.000031 0.000035
													CHANNELS 3 Xrotation Yrotation Zrotation
													JOINT LeftHandIndex4
													{
														OFFSET 4.409393 -0.000015 0.000044
														CHANNELS 3 Xrotation Yrotation Zrotation
														End Site
														{
															OFFSET 0.000000 0.000000 0.000000
														}
													}
												}
											}
										}
										JOINT LeftHandMiddle1
										{
											OFFSET 23.810127 0.000000 0.000041
											CHANNELS 3 Xrotation Yrotation Zrotation
											JOINT LeftHandMiddle2
											{
												OFFSET 7.176491 -0.000015 0.000051
												CHANNELS 3 Xrotation Yrotation Zrotation
												JOINT LeftHandMiddle3
												{
													OFFSET 6.774864 -0.000015 0.000032
													CHANNELS 3 Xrotation Yrotation Zrotation
													JOINT LeftHandMiddle4
													{
														OFFSET 5.402740 -0.027710 -0.077597
														CHANNELS 3 Xrotation Yrotation Zrotation
														End Site
														{
															OFFSET 0.000000 0.000000 0.000000
														}
													}
												}
											}
										}
										JOINT LeftHandRing1
										{
											OFFSET 22.908371 -0.858917 -6.017762
											CHANNELS 3 Xrotation Yrotation Zrotation
											JOINT LeftHandRing2
											{
												OFFSET 6.337524 0.000000 -0.000050
												CHANNELS 3 Xrotation Yrotation Zrotation
												JOINT LeftHandRing3
												{
													OFFSET 5.779289 0.000000 -0.000029
													CHANNELS 3 Xrotation Yrotation Zrotation
													JOINT LeftHandRing4
													{
														OFFSET 4.965714 0.000031 -0.000057
														CHANNELS 3 Xrotation Yrotation Zrotation
														End Site
														{
															OFFSET 0.000000 0.000000 0.000000
														}
													}
												}
											}
										}
										JOINT LeftHandPinky1
										{
											OFFSET 20.036995 -1.565994 -10.945109
											CHANNELS 3 Xrotation Yrotation Zrotation
											JOINT LeftHandPinky2
											{
												OFFSET 5.254700 -0.000015 0.000002
												CHANNELS 3 Xrotation Yrotation Zrotation
												JOINT LeftHandPinky3
												{
													OFFSET 4.810226 -0.000015 -0.000019
													CHANNELS 3 Xrotation Yrotation Zrotation
													JOINT LeftHandPinky4
													{
														OFFSET 3.647247 0.000015 -0.000044
														CHANNELS 3 Xrotation Yrotation Zrotation
														End Site
														{
															OFFSET 0.000000 0.000000 0.000000
														}
													}
												}
											}
										}
									}
								}
							}
						}
					}
					JOINT RightShoulder
					{
						OFFSET -7.570480 7.247673 -3.868757
						CHANNELS 3 Xrotation Yrotation Zrotation
						JOINT RightShoulder_split
						{
							OFFSET -7.570480 7.247673 -3.868757
							CHANNELS 3 Xrotation Yrotation Zrotation
							JOINT RightArm
							{
								OFFSET -9.309000 -2.777725 0.208549
								CHANNELS 3 Xrotation Yrotation Zrotation
								JOINT RightForeArm
								{
									OFFSET -29.972336 0.000061 -0.000048
									CHANNELS 3 Xrotation Yrotation Zrotation
									JOINT RightHand
									{
										OFFSET -26.026474 0.000092 0.000017
										CHANNELS 3 Xrotation Yrotation Zrotation
										JOINT RightHandThumb1
										{
											OFFSET -12.240570 -7.117905 9.230402
											CHANNELS 3 Xrotation Yrotation Zrotation
											JOINT RightHandThumb2
											{
												OFFSET -4.138580 -2.389465 2.389442
												CHANNELS 3 Xrotation Yrotation Zrotation
												JOINT RightHandThumb3
												{
													OFFSET -2.726990 -1.574402 1.574351
													CHANNELS 3 Xrotation Yrotation Zrotation
													JOINT RightHandThumb4
													{
														OFFSET -3.940971 -2.275345 2.275330
														CHANNELS 3 Xrotation Yrotation Zrotation
														End Site
														{
															OFFSET 0.000000 0.000000 0.000000
														}
													}
												}
											}
										}
										JOINT RightHandIndex1
										{
											OFFSET -24.424667 -1.966171 5.959853
											CHANNELS 3 Xrotation Yrotation Zrotation
											JOINT RightHandIndex2
											{
												OFFSET -6.426682 -0.000046 0.000010
												CHANNELS 3 Xrotation Yrotation Zrotation
												JOINT RightHandIndex3
												{
													OFFSET -5.337891 0.000015 0.000031
													CHANNELS 3 Xrotation Yrotation Zrotation
													JOINT RightHandIndex4
													{
														OFFSET -4.409386 0.000015 0.000044
														CHANNELS 3 Xrotation Yrotation Zrotation
														End Site
														{
															OFFSET 0.000000 0.000000 0.000000
														}
													}
												}
											}
										}
										JOINT RightHandMiddle1
										{
											OFFSET -23.810127 -0.000015 -0.000027
											CHANNELS 3 Xrotation Yrotation Zrotation
											JOINT RightHandMiddle2
											{
												OFFSET -7.176491 -0.000046 -0.000001
												CHANNELS 3 Xrotation Yrotation Zrotation
												JOINT RightHandMiddle3
												{
													OFFSET -6.774857 -0.000046 0.000038
													CHANNELS 3 Xrotation Yrotation Zrotation
													JOINT RightHandMiddle4
													{
														OFFSET -5.402740 -0.027740 -0.077594
														CHANNELS 3 Xrotation Yrotation Zrotation
														End Site
														{
															OFFSET 0.000000 0.000000 0.000000
														}
													}
												}
											}
										}
										JOINT RightHandRing1
										{
											OFFSET -22.908348 -0.858963 -6.017824
											CHANNELS 3 Xrotation Yrotation Zrotation
											JOINT RightHandRing2
											{
												OFFSET -6.337524 0.000046 -0.000019
												CHANNELS 3 Xrotation Yrotation Zrotation
												JOINT RightHandRing3
												{
													OFFSET -5.779289 0.000046 -0.000004
													CHANNELS 3 Xrotation Yrotation Zrotation
													JOINT RightHandRing4
													{
														OFFSET -4.965721 -0.000031 -0.000032
														CHANNELS 3 Xrotation Yrotation Zrotation
														End Site
														{
															OFFSET 0.000000 0.000000 0.000000
														}
													}
												}
											}
										}
										JOINT RightHandPinky1
										{
											OFFSET -20.036957 -1.566071 -10.945158
											CHANNELS 3 Xrotation Yrotation Zrotation
											JOINT RightHandPinky2
											{
												OFFSET -5.254700 0.000031 -0.000025
												CHANNELS 3 Xrotation Yrotation Zrotation
												JOINT RightHandPinky3
												{
													OFFSET -4.810226 -0.000015 -0.000048
													CHANNELS 3 Xrotation Yrotation Zrotation
													JOINT RightHandPinky4
													{
														OFFSET -3.647247 -0.000031 -0.000029
														CHANNELS 3 Xrotation Yrotation Zrotation
														End Site
														{
															OFFSET 0.000000 0.000000 0.000000
														}
													}
												}
											}
										}
									}
								}
							}
						}
					}
				}
			}
		}
	}
	JOINT LeftUpLeg
	{
		OFFSET 15.427091 -6.655090 0.678631
		CHANNELS 3 Xrotation Yrotation Zrotation
		JOINT LeftLeg
		{
			OFFSET 4.088469 -39.590321 13.023970
			CHANNELS 3 Xrotation Yrotation Zrotation
			JOINT LeftFoot
			{
				OFFSET -4.073973 -37.708702 -15.979749
				CHANNELS 3 Xrotation Yrotation Zrotation
				JOINT LeftToeBase
				{
					OFFSET 5.346369 -15.068922 20.645004
					CHANNELS 3 Xrotation Yrotation Zrotation
					JOINT LeftToe_End
					{
						OFFSET 2.754658 0.931270 11.300900
						CHANNELS 3 Xrotation Yrotation Zrotation
						End Site
						{
							OFFSET 0.000000 0.000000 0.000000
						}
					}
				}
			}
		}
	}
	JOINT RightUpLeg
	{
		OFFSET -15.569522 -6.655090 0.678631
		CHANNELS 3 Xrotation Yrotation Zrotation
		JOINT RightLeg
		{
			OFFSET -4.074467 -39.591820 13.023795
			CHANNELS 3 Xrotation Yrotation Zrotation
			JOINT RightFoot
			{
				OFFSET 4.088761 -37.707176 -15.979579
				CHANNELS 3 Xrotation Yrotation Zrotation
				JOINT RightToeBase
				{
					OFFSET -5.346370 -15.068919 20.645004
					CHANNELS 3 Xrotation Yrotation Zrotation
					JOINT RightToe_End
					{
						OFFSET -2.754656 0.931271 11.300900
						CHANNELS 3 Xrotation Yrotation Zrotation
						End Site
						{
							OFFSET 0.000000 0.000000 0.000000
						}
					}
				}
			}
		}
	}
}
MOTION
Frames: 4
Frame Time: 0.016667
1.347073 85.352386 -1.624651 -6.107854 -43.249113 -4.102214 5.831317 4.862979 -1.192818 11.839513 9.031706 -3.079605 0.000000 0.000000 0.000000 11.839514 9.031708 -3.079604 -4.303141 -1.284332 0.197020 -6.271521 20.437792 -0.378349 -0.000001 0.000000 -0.000000 1.386276 -0.696149 -7.881062 0.000000 0.000000 0.000000 -14.260095 2.394317 -63.277051 9.871779 -47.524992 5.927233 16.359847 0.983053 18.790829 9.081901 4.738951 -5.442432 -0.344801 0.041853 0.776362 -0.000507 -0.000625 0.000249 -0.000001 -0.000003 0.000001 -0.902800 -6.993199 -3.785711 0.042387 0.750877 -16.416594 0.000002 0.000001 -0.000003 0.000001 -0.000001 0.000001 1.924931 9.641784 -14.568341 -0.443676 -1.623612 -21.877624 0.002110 -0.822880 0.293760 0.000002 -0.000000 0.000000 2.575326 14.804857 -31.385167 -0.618201 -2.799666 -32.004569 0.000005 -0.001146 0.000011 -0.000001 -0.000000 -0.000001 4.141401 18.392613 -35.037173 -0.748046 -5.896038 -39.358139 0.000001 -0.000001 -0.000001 -0.000002 0.000000 0.000000 1.402687 9.461286 9.791434 0.000000 0.000000 0.000000 1.219642 -24.271327 60.532914 -6.660505 41.858343 8.041314 6.405866 12.358725 11.633859 -8.970064 -4.839002 -0.439665 7.917548 -19.198810 -2.804518 -0.000502 -0.000101 -0.000971 -0.000002 -0.000001 0.000000 -1.070825 -1.199146 4.529772 0.116483 -1.059343 16.935744 -0.000000 -0.000001 -0.000000 0.000000 0.000001 0.000000 -0.673654 -2.864076 12.738341 -0.692645 1.910902 30.573709 0.002109 0.822886 -0.293759 -0.000000 -0.000000 -0.000002 2.391768 -7.342002 21.785956 -1.048332 3.884747 37.420103 0.000000 -0.000003 0.000001 -0.000001 -0.000002 0.000001 3.472599 -9.983331 24.354462 -1.517757 8.003331 41.072991 -0.000000 -0.000003 0.000001 -0.000002 -0.000001 0.000001 -29.877932 5.209173 13.306000 32.842244 -12.870199 0.313397 -0.269138 0.090231 -8.721036 -2.319084 -3.208626 0.802956 -0.000000 -0.000003 -0.000000 1.356336 -13.675215 -18.996587 31.290592 -6.232791 0.677569 -23.451533 -7.001745 20.508119 -1.786605 -0.361854 0.339079 0.000000 0.000001 -0.000000 
1.432553 85.415955 -1.610791 -5.629815 -43.274634 -3.941741 5.813382 4.745491 -1.188643 11.799045 8.799382 -3.072765 0.000000 0.000000 0.000000 11.799047 8.799398 -3.072768 -4.422129 -1.092330 0.277848 -5.829505 20.627349 -0.313117 0.000000 0.000000 -0.000000 1.383091 -0.397814 -7.926408 0.000000 0.000000 0.000000 -14.029759 2.734221 -62.771822 9.926594 -48.184290 6.035153 16.215725 1.023964 18.294703 8.768743 4.535175 -5.395672 -0.328152 0.088327 0.790269 -0.000504 -0.000624 0.000249 0.000001 0.000001 0.000001 -0.919534 -6.943595 -3.900593 0.040382 0.744359 -16.470629 -0.000004 0.000002 -0.000001 -0.000001 -0.000001 0.000002 1.892063 9.509128 -14.581154 -0.439503 -1.611764 -21.764545 0.002110 -0.822878 0.293760 -0.000000 -0.000000 -0.000001 2.522980 14.715383 -31.224459 -0.609200 -2.788247 -31.784968 0.000006 -0.001146 0.000011 0.000002 -0.000001 -0.000001 4.096381 18.365689 -34.758710 -0.745001 -5.892555 -39.168550 0.000003 -0.000001 -0.000003 -0.000002 -0.000000 -0.000000 1.380346 9.243844 9.868316 0.000000 0.000000 0.000000 0.761770 -23.273354 59.588025 -6.011330 41.848197 8.413410 5.895795 12.262952 11.234167 -9.055205 -4.648500 -0.508336 7.817064 -18.972490 -2.803385 -0.000502 -0.000101 -0.000971 -0.000001 -0.000000 -0.000001 -1.088553 -1.125487 4.612812 0.115611 -1.056475 16.964527 -0.000001 -0.000000 -0.000000 -0.000001 0.000001 0.000001 -0.680920 -2.832363 12.761843 -0.682877 1.889940 30.318250 0.002112 0.822886 -0.293757 -0.000001 -0.000001 -0.000003 2.397146 -7.357760 21.750698 -1.028486 3.862745 37.103281 0.000001 0.000001 -0.000000 0.000001 -0.000002 0.000002 3.511438 -10.067095 24.226030 -1.505218 7.989023 40.834948 -0.000000 0.000000 -0.000003 -0.000002 0.000000 0.000002 -30.211829 4.916365 13.348511 32.796461 -12.662175 0.349132 -0.202605 0.111723 -8.789063 -2.317331 -3.185380 0.758574 0.000000 0.000000 -0.000000 1.135433 -13.418723 -18.790100 31.129875 -6.491029 0.682341 -23.259000 -7.036571 20.576515 -1.690334 -0.303071 0.336894 -0.000000 0.000001 -0.000000 
1.700923 85.184494 -1.692182 -4.807542 -43.384713 -3.414643 5.837617 4.547800 -1.199928 11.833213 8.390646 -3.031210 0.000000 0.000000 0.000000 11.833216 8.390647 -3.031208 -4.921769 -0.745165 0.377362 -5.471395 20.932035 -0.687781 0.000001 0.000000 0.000000 1.353757 -0.084326 -8.114202 0.000000 0.000000 0.000000 -13.720319 3.472229 -62.042460 9.760784 -49.803308 6.772889 15.960265 1.186904 17.417201 7.986358 3.968731 -5.395809 -0.300366 0.173418 0.819498 -0.000506 -0.000624 0.000247 -0.000001 0.000002 0.000001 -0.970027 -6.846450 -4.194306 0.034714 0.726181 -16.622353 0.000001 0.000002 0.000002 0.000001 0.000001 0.000002 1.814334 9.194591 -14.635832 -0.430750 -1.586349 -21.522677 0.002107 -0.822880 0.293761 0.000001 0.000000 0.000001 2.410067 14.506891 -30.873599 -0.589353 -2.762523 -31.292710 -0.000001 -0.001147 0.000009 -0.000001 -0.000001 -0.000002 4.013557 18.313598 -34.135680 -0.738301 -5.884727 -38.746960 -0.000000 -0.000001 -0.000002 -0.000002 -0.000002 -0.000000 1.366465 8.740147 9.888919 0.000000 0.000000 0.000000 0.198829 -22.093814 58.169142 -5.011370 43.032145 8.206098 5.592937 11.603777 11.057602 -9.306799 -4.152091 -0.632308 7.567469 -18.416741 -2.797282 -0.000500 -0.000100 -0.000970 -0.000001 0.000000 -0.000001 -1.139957 -0.927688 4.820759 0.113138 -1.048372 17.047445 0.000000 0.000001 -0.000000 -0.000001 -0.000001 -0.000000 -0.698171 -2.756841 12.829339 -0.655777 1.842583 29.732469 0.002112 0.822883 -0.293759 0.000001 0.000000 0.000000 2.413712 -7.407175 21.684900 -0.989320 3.810021 36.373534 0.000000 0.000001 -0.000001 0.000000 -0.000001 0.000002 3.620846 -10.286847 23.945243 -1.476693 7.955934 40.290395 0.000001 -0.000001 0.000003 -0.000001 0.000000 0.000000 -31.159945 4.337775 13.164699 33.278625 -12.149498 0.507525 -0.215788 0.186455 -8.976639 -2.385196 -3.108408 0.875837 0.000000 -0.000001 -0.000000 0.098519 -12.842696 -18.966279 31.832469 -6.713895 0.773438 -23.324307 -7.152674 20.734586 -1.555696 -0.218992 0.330487 -0.000000 -0.000001 0.000000 
2.175041 84.541283 -1.866457 -3.501754 -43.647429 -2.480711 5.898902 4.317107 -1.222695 11.935585 7.898656 -2.958463 0.000000 0.000000 0.000000 11.935581 7.898660 -2.958466 -5.669649 -0.289496 0.470748 -5.266489 21.333572 -1.343457 0.000001 0.000000 0.000000 1.309653 0.214989 -8.413634 0.000000 0.000000 0.000000 -13.338982 4.470542 -61.256394 9.454011 -52.092193 7.865481 15.678959 1.264754 16.555614 6.870058 3.082202 -5.531894 -0.275370 0.261881 0.855331 -0.000506 -0.000622 0.000249 -0.000000 -0.000003 0.000002 -1.052609 -6.735248 -4.624398 0.025949 0.697780 -16.858884 0.000003 -0.000001 -0.000000 0.000005 -0.000001 -0.000002 1.703117 8.761187 -14.739837 -0.419786 -1.554512 -21.219267 0.002111 -0.822879 0.293760 0.000000 -0.000000 0.000001 2.270373 14.222077 -30.424613 -0.567673 -2.727497 -30.646065 0.000004 -0.001147 0.000007 -0.000000 -0.000002 -0.000000 3.931691 18.252402 -33.319941 -0.729590 -5.874521 -38.197184 0.000004 -0.000001 0.000001 0.000000 -0.000000 -0.000000 1.342451 8.063063 9.863300 0.000000 0.000000 0.000000 -0.357395 -20.942463 56.548956 -3.777871 45.173789 7.545562 5.559166 10.758721 10.795134 -9.706700 -3.414514 -0.752406 7.213627 -17.625761 -2.784306 -0.000502 -0.000100 -0.000971 -0.000000 0.000000 0.000000 -1.223107 -0.628761 5.120903 0.109158 -1.035598 17.178296 0.000000 -0.000001 0.000001 0.000000 -0.000001 -0.000000 -0.728126 -2.653288 12.938334 -0.620126 1.778525 28.946270 0.002113 0.822883 -0.293756 0.000001 -0.000001 -0.000001 2.440646 -7.489243 21.614241 -0.937564 3.738147 35.389980 0.000001 0.000000 0.000002 -0.000000 -0.000000 0.000004 3.789774 -10.615515 23.585159 -1.438935 7.911131 39.560934 -0.000000 0.000003 0.000001 -0.000000 0.000002 0.000003 -33.029781 3.566504 12.935988 34.522211 -11.431877 0.672655 -0.369001 0.283872 -9.183050 -2.029859 -2.962337 0.146334 -0.000000 0.000005 0.000000 -1.988489 -11.911285 -19.538262 33.607587 -6.783418 0.988079 -23.729537 -7.328935 20.955365 -1.460761 -0.199701 0.313508 0.000000 -0.000003 -0.000000 
